<svg width="20" height="21" viewBox="0 0 20 21" fill="none" xmlns="http://www.w3.org/2000/svg">
<g clip-path="url(#clip0_383_360)">
<g clip-path="url(#clip1_383_360)">
<path d="M2.38402 3.44531C1.99847 3.44531 1.68402 3.75977 1.68402 4.14531C1.68402 4.53086 1.99847 4.84531 2.38402 4.84531H3.93715L5.77465 12.1953C5.93051 12.8187 6.48832 13.2453 7.1309 13.2453H15.159C15.7907 13.2453 16.3266 12.827 16.4934 12.2172L18.309 5.54531H6.58402L6.93402 6.94531H16.4934L15.159 11.8453H7.1309L5.2934 4.49531C5.13754 3.87188 4.57972 3.44531 3.93715 3.44531H2.38402ZM14.284 13.2453C13.1328 13.2453 12.184 14.1941 12.184 15.3453C12.184 16.4965 13.1328 17.4453 14.284 17.4453C15.4352 17.4453 16.384 16.4965 16.384 15.3453C16.384 14.1941 15.4352 13.2453 14.284 13.2453ZM7.98402 13.2453C6.83285 13.2453 5.88402 14.1941 5.88402 15.3453C5.88402 16.4965 6.83285 17.4453 7.98402 17.4453C9.13519 17.4453 10.084 16.4965 10.084 15.3453C10.084 14.1941 9.13519 13.2453 7.98402 13.2453ZM7.98402 14.6453C8.37777 14.6453 8.68402 14.9516 8.68402 15.3453C8.68402 15.7391 8.37777 16.0453 7.98402 16.0453C7.59027 16.0453 7.28402 15.7391 7.28402 15.3453C7.28402 14.9516 7.59027 14.6453 7.98402 14.6453ZM14.284 14.6453C14.6778 14.6453 14.984 14.9516 14.984 15.3453C14.984 15.7391 14.6778 16.0453 14.284 16.0453C13.8903 16.0453 13.584 15.7391 13.584 15.3453C13.584 14.9516 13.8903 14.6453 14.284 14.6453Z" fill="#1F1F1F"/>
</g>
</g>
<defs>
<clipPath id="clip0_383_360">
<rect width="20" height="20" fill="white" transform="translate(0 0.445312)"/>
</clipPath>
<clipPath id="clip1_383_360">
<rect width="20" height="20" fill="white" transform="translate(0 0.445312)"/>
</clipPath>
</defs>
</svg>
