<svg width="14" height="16" viewBox="0 0 14 16" fill="none" xmlns="http://www.w3.org/2000/svg">
<path d="M13.0549 14C13.469 14.0001 13.8049 14.3359 13.8049 14.75C13.8049 15.1641 13.469 15.4999 13.0549 15.5H1.0481C0.633883 15.5 0.298097 15.1642 0.298096 14.75C0.298096 14.3358 0.633882 14 1.0481 14H13.0549ZM13.0549 7C13.469 7.00015 13.8049 7.33588 13.8049 7.75C13.8049 8.16412 13.469 8.49985 13.0549 8.5H1.0481C0.633883 8.5 0.298097 8.16421 0.298096 7.75C0.298096 7.33579 0.633882 7 1.0481 7H13.0549ZM13.0549 0C13.469 0.000147936 13.8049 0.335878 13.8049 0.75C13.8049 1.16412 13.469 1.49985 13.0549 1.5H1.0481C0.633883 1.5 0.298097 1.16421 0.298096 0.75C0.298096 0.335786 0.633882 -5.36195e-08 1.0481 0H13.0549Z" fill="#06923E"/>
</svg>
