<svg width="24" height="24" viewBox="0 0 24 24" fill="none" xmlns="http://www.w3.org/2000/svg">
<path d="M16.7227 14.0602C16.4672 13.9289 15.1945 13.3055 14.9578 13.2211C14.7211 13.132 14.5477 13.0898 14.3766 13.3523C14.2031 13.6125 13.7109 14.1914 13.5563 14.3672C13.4063 14.5406 13.2539 14.5617 12.9984 14.4328C11.4797 13.6734 10.4836 13.0781 9.48282 11.3602C9.21797 10.9031 9.74766 10.9359 10.2422 9.94922C10.3266 9.77578 10.2844 9.62813 10.2188 9.49688C10.1531 9.36563 9.63751 8.09531 9.42188 7.57734C9.21329 7.07344 8.99766 7.14375 8.84063 7.13437C8.69063 7.125 8.51954 7.125 8.3461 7.125C8.17266 7.125 7.89376 7.19063 7.65704 7.44609C7.42032 7.70625 6.75235 8.33203 6.75235 9.60234C6.75235 10.8727 7.67813 12.1031 7.80469 12.2766C7.93594 12.45 9.62579 15.0563 12.2203 16.1789C13.8609 16.8867 14.5031 16.9477 15.3234 16.8258C15.8227 16.7508 16.8516 16.2023 17.0648 15.5953C17.2781 14.9906 17.2781 14.4727 17.2148 14.3648C17.1516 14.25 16.9781 14.1844 16.7227 14.0602Z" fill="white"/>
<path d="M21.6844 7.93125C21.1547 6.67266 20.3953 5.54297 19.4273 4.57266C18.4594 3.60469 17.3297 2.84297 16.0687 2.31563C14.7797 1.77422 13.4109 1.5 12 1.5H11.9531C10.5328 1.50703 9.15703 1.78828 7.86328 2.34141C6.61406 2.87578 5.49375 3.63516 4.53515 4.60312C3.57656 5.57109 2.82421 6.69609 2.3039 7.95C1.76484 9.24844 1.49296 10.6289 1.5 12.0492C1.50703 13.6758 1.89609 15.2906 2.625 16.7344V20.2969C2.625 20.8922 3.10781 21.375 3.70312 21.375H7.26796C8.71171 22.1039 10.3266 22.493 11.9531 22.5H12.0023C13.4062 22.5 14.768 22.2281 16.05 21.6961C17.3039 21.1734 18.4312 20.4234 19.3969 19.4648C20.3648 18.5063 21.1266 17.3859 21.6586 16.1367C22.2117 14.843 22.493 13.4672 22.5 12.0469C22.507 10.6195 22.2305 9.23438 21.6844 7.93125ZM18.143 18.1969C16.5 19.8234 14.3203 20.7188 12 20.7188H11.9602C10.5469 20.7117 9.14296 20.3602 7.90312 19.6992L7.70625 19.5938H4.40625V16.2938L4.30078 16.0969C3.63984 14.857 3.28828 13.4531 3.28125 12.0398C3.27187 9.70312 4.16484 7.50937 5.80312 5.85703C7.43906 4.20469 9.62578 3.29062 11.9625 3.28125H12.0023C13.1742 3.28125 14.3109 3.50859 15.382 3.95859C16.4273 4.39687 17.3648 5.02734 18.1711 5.83359C18.975 6.6375 19.6078 7.57734 20.0461 8.62266C20.5008 9.70547 20.7281 10.8539 20.7234 12.0398C20.7094 14.3742 19.793 16.5609 18.143 18.1969Z" fill="white"/>
</svg>
